<?xml version="1.0" standalone="no"?>
<!DOCTYPE svg PUBLIC "-//W3C//DTD SVG 20010904//EN"
 "http://www.w3.org/TR/2001/REC-SVG-20010904/DTD/svg10.dtd">
<svg version="1.0" xmlns="http://www.w3.org/2000/svg"
 width="900.000000pt" height="900.000000pt" viewBox="0 0 900.000000 900.000000"
 preserveAspectRatio="xMidYMid meet">

<g transform="translate(0.000000,900.000000) scale(0.100000,-0.100000)"
fill="#000000" stroke="none">
<path d="M4180 8989 c-284 -22 -523 -62 -795 -131 -1073 -271 -2017 -941
-2632 -1868 -702 -1057 -926 -2356 -617 -3585 401 -1602 1661 -2865 3255
-3265 739 -185 1473 -187 2204 -4 983 245 1858 821 2482 1634 362 473 634
1033 781 1615 188 739 188 1489 0 2230 -272 1074 -940 2015 -1870 2633 -746
496 -1619 757 -2512 751 -105 -1 -238 -6 -296 -10z m715 -729 c622 -65 1250
-299 1765 -658 335 -234 686 -581 923 -914 369 -517 606 -1150 678 -1808 17
-148 17 -612 1 -755 -75 -663 -297 -1264 -657 -1780 -231 -332 -554 -662 -882
-902 -289 -211 -649 -399 -991 -517 -57 -20 -106 -36 -108 -36 -2 0 -4 179 -4
399 0 429 -5 492 -55 648 -44 139 -160 306 -260 374 -19 13 -35 27 -35 30 0 3
60 13 134 23 451 58 884 206 1146 393 120 86 286 252 372 374 230 321 358 801
358 1335 0 435 -133 818 -389 1119 -28 32 -51 62 -51 66 0 3 9 32 20 65 53
153 77 371 61 549 -13 145 -34 242 -85 400 l-42 130 -65 8 c-114 14 -210 -5
-419 -80 -160 -57 -382 -168 -563 -282 l-143 -89 -119 29 c-349 85 -622 113
-1040 106 -380 -6 -588 -31 -886 -107 l-120 -30 -42 29 c-240 165 -596 340
-797 391 -88 23 -251 38 -315 30 l-40 -5 -37 -112 c-66 -198 -91 -343 -92
-533 0 -178 13 -273 60 -422 28 -88 31 -76 -39 -158 -160 -186 -285 -449 -345
-729 -25 -119 -27 -140 -26 -391 0 -290 10 -392 65 -644 105 -482 340 -838
712 -1084 258 -169 666 -303 1093 -358 74 -10 134 -20 133 -23 0 -3 -22 -23
-49 -43 -76 -58 -149 -153 -201 -263 -88 -186 -99 -271 -99 -782 0 -222 -4
-373 -9 -373 -5 0 -69 21 -143 46 -581 202 -1091 531 -1508 972 -580 614 -926
1365 -1022 2217 -16 142 -16 617 0 765 30 275 106 616 191 857 197 559 485
1017 901 1433 347 347 717 601 1167 799 350 154 830 272 1218 300 152 11 536
6 680 -9z"/>
</g>
</svg>
