<?xml version="1.0" standalone="no"?>
<!DOCTYPE svg PUBLIC "-//W3C//DTD SVG 20010904//EN"
 "http://www.w3.org/TR/2001/REC-SVG-20010904/DTD/svg10.dtd">
<svg version="1.0" xmlns="http://www.w3.org/2000/svg"
 width="147.000000pt" height="144.000000pt" viewBox="0 0 147.000000 144.000000"
 preserveAspectRatio="xMidYMid meet">

<g transform="translate(0.000000,144.000000) scale(0.100000,-0.100000)"
fill="#000000" stroke="none">
<path d="M0 720 l0 -720 735 0 735 0 0 720 0 720 -735 0 -735 0 0 -720z m398
591 c18 -12 41 -40 52 -61 83 -164 -120 -327 -257 -207 -64 56 -80 134 -43
207 18 35 54 68 90 83 33 14 126 1 158 -22z m783 -384 c101 -42 154 -137 169
-299 13 -142 13 -475 0 -499 -10 -17 -22 -19 -130 -19 -108 0 -120 2 -130 19
-6 12 -10 111 -10 251 0 244 -5 275 -49 314 -31 28 -108 32 -147 8 -62 -39
-69 -71 -72 -332 -2 -147 -7 -239 -14 -247 -7 -9 -44 -13 -124 -13 -102 0
-114 2 -124 19 -6 13 -10 156 -10 397 0 337 2 379 17 396 14 15 32 18 119 18
115 0 134 -9 134 -62 l0 -30 39 35 c34 31 62 44 126 61 36 9 170 -2 206 -17z
m-770 3 c18 -10 19 -25 19 -403 0 -292 -3 -396 -12 -405 -16 -16 -220 -16
-236 0 -9 9 -12 113 -12 405 0 363 1 393 18 402 22 14 198 14 223 1z"/>
</g>
</svg>
