<?xml version="1.0" encoding="utf-8"?>
<!-- Generator: Adobe Illustrator 22.1.0, SVG Export Plug-In . SVG Version: 6.00 Build 0)  -->
<svg version="1.1" id="Layer_1" xmlns="http://www.w3.org/2000/svg" xmlns:xlink="http://www.w3.org/1999/xlink" x="0px" y="0px"
	 viewBox="0 0 876 243" style="enable-background:new 0 0 876 243;" xml:space="preserve">
<style type="text/css">
	.st0{fill:#003399;}
	.st1{fill:#FFFF00;}
	.st2{fill-rule:evenodd;clip-rule:evenodd;fill:#FFFF00;}
	.st3{fill:#7A6D60;}
</style>
<g>
	<path class="st0" d="M40.6,0.1h161.9c22.4,0,40.5,18.2,40.5,40.5v162c0,22.4-18.1,40.5-40.5,40.5H40.6c-22.4,0-40.5-18.1-40.5-40.5
		v-162C0.1,18.2,18.2,0.1,40.6,0.1z"/>
	<g>
		<rect x="20.3" y="121.5" class="st1" width="18.9" height="81"/>
		<path class="st1" d="M123.8,140c-11.6,0-20.2,3-24.9,5.7l3.5,11.9c4.3-2.6,11.6-4.9,18.2-4.9c11,0,13.4,5.6,13.4,8.4v0.7
			c-24.5-0.1-39.6,7.8-39.6,23.5c0,9.2,7.3,18.6,20.8,18.6c8,0,14.8-2.9,19-7.8h0.2l2.1,6.3h15.4v-35.9
			C151.9,152,144.7,140,123.8,140z M134.6,180.1c0,1-0.1,2.1-0.3,3.1c0,0.1-0.2,0.6-0.2,0.6c0,0.1-0.1,0.2-0.1,0.3
			c-1.7,4-6.1,7.7-12.1,7.7c-5.2,0-8.8-2.7-8.8-7.8c0-5.7,4.9-8.7,12.2-9.8c1.7-0.3,3.6-0.4,5.6-0.5c1.2,0,2.5-0.1,3.7,0V180.1z"/>
		<path class="st1" d="M204.1,141.8v35.6c0,1.4-0.2,2.7-0.6,3.9c-1.5,3.7-5.2,7.8-11.4,7.8c-7.7,0-11.1-5.7-11.1-15.1v-32.1h-18.4
			v35.5c0,4.8,0.6,8.8,1.7,12.1c1.1,3.3,2.7,6.1,4.7,8.2c2,2.2,4.4,3.8,7.1,4.8c2.8,1,5.8,1.5,9.2,1.5c2.9,0,5.5-0.4,7.7-1.1
			c2.2-0.7,4.2-1.6,5.8-2.6c1.6-1,3-2.1,4.1-3.2c1.1-1.2,2-2.2,2.6-3.1l2.4,8.6h15v-60.7H204.1z"/>
		<path class="st1" d="M56.9,121.5v20.3h-8.6v13.8h8.6v24.7c0,8.2,1.6,14.3,5.2,18c3,3.3,8.4,5.7,14.8,5.7c5.5,0,7.7-0.8,10.2-1.8
			v-14.1c-0.5,0.2-2,0.5-3.9,0.5c-6.5,0-8.1-4.1-8.1-11.5v-21.5H87v-13.8H75.3v-20.3H56.9z"/>
		<polygon class="st2" points="197.1,121.5 185.7,137.9 198.9,137.9 214.9,121.5 		"/>
	</g>
</g>
<g>
	<polygon class="st3" points="495.1,141.8 486.7,154 496.4,154 508.3,141.8 	"/>
	<g>
		<rect x="364" y="141.8" class="st3" width="14" height="60.1"/>
		<g>
			<path class="st3" d="M448.8,185.3c0,0.7-0.1,1.5-0.2,2.3c0,0.1-0.1,0.4-0.1,0.5c0,0.1-0.1,0.2-0.1,0.2c-1.2,2.9-4.5,5.7-9,5.7
				c-3.8,0-6.5-2-6.5-5.8c0-4.2,3.6-6.4,9-7.3c1.3-0.2,2.7-0.3,4.1-0.4c0.9,0,1.8,0,2.8,0V185.3z M440.8,155.6
				c-8.6,0-15,2.2-18.5,4.3l2.6,8.9c3.2-1.9,8.6-3.6,13.5-3.6c8.2,0,9.9,4.1,9.9,6.3v0.5c-18.2-0.1-29.4,5.8-29.4,17.5
				c0,6.9,5.4,13.8,15.4,13.8c6,0,11-2.2,14.1-5.8h0.2l1.5,4.7h11.4v-26.6C461.6,164.5,456.3,155.6,440.8,155.6"/>
			<path class="st3" d="M500.3,156.9v26.4c0,1.1-0.1,2-0.5,2.9c-1.1,2.7-3.9,5.8-8.4,5.8c-5.7,0-8.2-4.2-8.2-11.2v-23.8h-13.7v26.3
				c0,3.5,0.4,6.5,1.3,9c0.9,2.5,2,4.5,3.5,6.1c1.5,1.6,3.2,2.8,5.3,3.5c2.1,0.7,4.3,1.1,6.8,1.1c2.2,0,4.1-0.3,5.7-0.8
				c1.7-0.5,3.1-1.2,4.3-1.9c1.2-0.7,2.2-1.5,3-2.4c0.8-0.9,1.5-1.6,1.9-2.3l1.8,6.4h11.1v-45H500.3z"/>
			<path class="st3" d="M391.1,141.8v15h-6.4v10.3h6.4v18.3c0,6.1,1.2,10.6,3.8,13.4c2.3,2.4,6.2,4.2,11,4.2c4.1,0,5.7-0.6,7.6-1.3
				v-10.5c-0.4,0.2-1.5,0.4-2.9,0.4c-4.9,0-6-3-6-8.5v-15.9h8.7v-10.3h-8.7v-15H391.1z"/>
		</g>
		<polygon class="st3" points="559.5,170.3 534.2,170.3 534.2,198.1 562.6,198.1 562.6,201.8 529.7,201.8 529.7,138.4 561.1,138.4 
			561.1,142.1 534.2,142.1 534.2,166.5 559.5,166.5 		"/>
		<g>
			<path class="st3" d="M573.6,167.5c0-4.1-0.1-7.3-0.4-10.8h4.2l0.3,7.9h0.2c2.9-5.2,7.3-9,14.7-9c6.2,0,11,4.1,13,9.8h0.2
				c1.2-2.6,2.9-4.7,4.6-6.1c2.9-2.4,5.9-3.7,10.7-3.7c4.4,0,14.8,2.5,14.8,19.6v26.6h-4.5v-26.3c0-10.2-4-16.2-11.8-16.2
				c-5.6,0-10.1,4.2-11.9,8.9c-0.4,1.3-0.8,2.8-0.8,4.5v29h-4.5v-28.3c0-8.1-3.9-14.1-11.2-14.1c-6,0-10.8,4.9-12.5,10.2
				c-0.4,1.3-0.7,2.8-0.7,4.4v27.9h-4.5V167.5z"/>
			<path class="st3" d="M655.1,184c0,1.2,0.1,2.5,0.4,3.6c1.9,7,7.9,11.5,14.9,11.5c10.4,0,16.3-8.4,16.3-20.4
				c0-10.2-5.7-19.3-15.9-19.3c-6.6,0-13,4.5-15,12c-0.3,1.2-0.7,2.6-0.7,3.9V184z M650.6,171.1c0-5.6-0.1-10.1-0.4-14.4h4.3
				l0.3,8.6h0.2c3.3-5.9,8.9-9.6,16.8-9.6c11.6,0,19.4,9.6,19.4,22.9c0,16.1-9.6,24.4-20.5,24.4c-6.5,0-12.2-2.9-15.3-8.4h-0.2v26
				h-4.5V171.1z"/>
			<path class="st3" d="M702.6,170.2c0-4.5-0.1-9.1-0.4-13.6h4.1l0.2,9.1h0.3c2-5.7,6.7-10.2,12.8-10.2c0.7,0,1.3,0.1,1.9,0.2v4.2
				c-0.7-0.1-1.3-0.1-2.2-0.1c-6.2,0-10.6,5.4-11.9,12.6c-0.3,1.3-0.4,2.8-0.4,4.3v25h-4.5V170.2z"/>
			<path class="st3" d="M758.9,175.2c0.1-6.3-2.5-15.8-13.5-15.8c-10,0-14.2,8.9-15.1,15.8H758.9z M730.1,178.8
				c0,14.4,7.9,20.2,17.2,20.2c6.6,0,10-1.3,12.5-2.5l1.1,3.5c-1.7,0.9-6.3,2.9-14.2,2.9c-13,0-21.1-9.4-21.1-22.7
				c0-15.1,8.7-24.5,20.3-24.5c14.8,0,17.6,13.9,17.6,20.4c0,1.2,0,1.9-0.2,2.7H730.1z"/>
			<path class="st3" d="M773.2,195.9c2.4,1.5,6.1,3.1,10.2,3.1c7.2,0,10.5-3.9,10.5-8.6c0-5-3-7.6-9.5-10.3
				c-7.4-2.8-11.5-6.9-11.5-12.3c0-6.6,5.2-12.2,13.9-12.2c4.1,0,7.7,1.2,10,2.8l-1.7,3.7c-1.6-1.1-4.5-2.7-9-2.7
				c-5.7,0-8.8,3.7-8.8,7.8c0,4.7,3.2,6.7,9.3,9.2c7.3,2.9,11.7,6.6,11.7,13.5c0,7.7-6,12.9-15.3,12.9c-4.3,0-8.5-1.2-11.5-3.1
				L773.2,195.9z"/>
			<path class="st3" d="M833.8,177.6c-9.9-0.3-22.9,1.2-22.9,12.1c0,6.5,4.3,9.4,9,9.4c7.5,0,11.9-4.6,13.4-9c0.4-0.9,0.5-2,0.5-2.7
				V177.6z M838.4,191.1c0,3.6,0.1,7.2,0.7,10.7h-4.1l-0.7-6.5H834c-2.3,3.5-7.2,7.5-14.5,7.5c-9.1,0-13.3-6.4-13.3-12.4
				c0-10.4,9.1-16.8,27.6-16.6v-1.2c0-4.4-0.8-13.4-11.6-13.3c-4,0-8.1,1-11.4,3.4l-1.4-3.3c4.1-2.7,9.2-3.9,13.3-3.9
				c13.1,0,15.6,9.8,15.6,17.8V191.1z"/>
			<path class="st3" d="M851.1,195.9c2.5,1.5,6.1,3.1,10.2,3.1c7.2,0,10.5-3.9,10.5-8.6c0-5-3-7.6-9.5-10.3
				c-7.4-2.8-11.5-6.9-11.5-12.3c0-6.6,5.2-12.2,13.9-12.2c4.1,0,7.7,1.2,10,2.8l-1.7,3.7c-1.6-1.1-4.5-2.7-9-2.7
				c-5.7,0-8.8,3.7-8.8,7.8c0,4.7,3.2,6.7,9.3,9.2c7.3,2.9,11.7,6.6,11.7,13.5c0,7.7-6,12.9-15.3,12.9c-4.3,0-8.5-1.2-11.5-3.1
				L851.1,195.9z"/>
		</g>
	</g>
</g>
</svg>
